# xmcd
#
# Track frame offsets:
#	150
#	12565
#	25790
#	40832
#	60415
#	85950
#	108610
#	135997
#	147197
#	164245
#	181022
#	196715
#	216387
#	240677
#	261572
#	282245
#
# Disc length: 4094
#
# Revision: 2
# Processed by: cddbd v1.5.1PL0 Copyright (c) Steve Scherf et al.
# Submitted via: tcd 2.0b
# Normalized: r1:TDELIM( - )
#
DISCID=e80ffc10
DTITLE=Div. - Classic Blues
DYEAR=1900
DGENRE=
TTITLE0=John Lee Hooker - I'm In the Mood
TTITLE1=Muddy Waters - Manish Boy
TTITLE2=Buddy Guy - Broken Hearted Blues
TTITLE3=B.B. King - Six Silver Strings
TTITLE4=Albert Collins - Blue Monday Hangover
TTITLE5=Johnny Winter - Murdering Blues
TTITLE6=Rufus Thomas - Somebodys' got to go
TTITLE7=Howlin' Wolf - Little Red Rooster
TTITLE8=Gary Moore - Don't believe in a Word
TTITLE9=Steve Miller Band - Mercury Blues
TTITLE10=Koko Taylor - The Hunter
TTITLE11=Lonnie Brooks - Don't take Advantage of Me
TTITLE12=Lonnie Mack - Stop
TTITLE13=James Cotton - Easy Loving
TTITLE14=Son Seals - Out of my Way
TTITLE15=Albert Collins and Robert Cray - The Dream
EXTD=
EXTT0=
EXTT1=
EXTT2=
EXTT3=
EXTT4=
EXTT5=
EXTT6=
EXTT7=
EXTT8=
EXTT9=
EXTT10=
EXTT11=
EXTT12=
EXTT13=
EXTT14=
EXTT15=
PLAYORDER=
